<svg width="40" height="46" viewBox="0 0 40 46" fill="none" xmlns="http://www.w3.org/2000/svg">
<rect x="1" y="4.29688" width="38" height="39.7612" rx="3" stroke="#009FE3" stroke-width="2"/>
<path d="M0.785156 14.4258H39.2165" stroke="#009FE3" stroke-width="2" stroke-miterlimit="10"/>
<path d="M29.8047 1.09766V8.15344" stroke="#009FE3" stroke-width="2" stroke-miterlimit="10" stroke-linecap="round"/>
<path d="M29.8042 11.6029C30.8438 11.6029 31.6866 10.7605 31.6866 9.72137C31.6866 8.68223 30.8438 7.83984 29.8042 7.83984C28.7646 7.83984 27.9219 8.68223 27.9219 9.72137C27.9219 10.7605 28.7646 11.6029 29.8042 11.6029Z" fill="#009FE3"/>
<path d="M10.9805 1.09766V8.15344" stroke="#009FE3" stroke-width="2" stroke-miterlimit="10" stroke-linecap="round"/>
<path d="M10.98 11.6029C12.0196 11.6029 12.8624 10.7605 12.8624 9.72137C12.8624 8.68223 12.0196 7.83984 10.98 7.83984C9.94041 7.83984 9.09766 8.68223 9.09766 9.72137C9.09766 10.7605 9.94041 11.6029 10.98 11.6029Z" fill="#009FE3"/>
<path d="M17.6111 34.4971H20.0951L25.7831 23.5711V21.8971H16.9271V23.8411H23.2631L17.6111 34.4971Z" fill="#009FE3"/>
</svg>
